<?xml version="1.0" ?>
<svg preserveAspectRatio="xMinYMin meet" version="1.1" viewBox="0 0 800 800" xmlns="http://www.w3.org/2000/svg">
<g fill="none" stroke="black" stroke-linecap="round" stroke-linejoin="round" stroke-width="3">
<g transform="translate(-4.46494,2.06537) rotate(-6,400,400) scale(0.972147,1.05708) skewX(-2.1273) skewY(-1.74271)">
<path d="M 358.611,473.1 C 359.611,471.1 363.5,463.7 368.7,464.3 C 373.204,459.7 375.9,458.8 386.6,459.4 C 430.145,455.5 440.3,452.6 479.1,459.4 C 490.495,457.6 493.5,462.6 500.2,474.1 C 510.904,481.3 519.7,495.4 519.7,498.4" id="0"/>
<path d="M 366.104,461.6 C 363.104,460.6 338.8,517.6 330.4,573.6 C 326.857,606.1 329,613.4 328.8,641.7 C 327.533,651.8 332.7,660.4 338.5,659.6 C 352.221,666.3 370.7,669.3 385.6,659.6 C 411.521,645.1 419.9,637.6 448.9,615.8 C 473.179,594.5 473.4,589.7 487.9,562.2 C 500.383,545.3 496.9,542.5 502.5,526.5 C 510.617,510.2 522.6,492.8 523.6,490.8" id="1"/>
<path d="M 359.234,480.5 C 360.234,477.5 348.8,465.5 334.9,462.7 C 300.119,448.5 296.1,452.5 261.8,436.7 C 240.755,429.3 240.9,427.8 222.9,415.6 C 193.487,400.7 192.5,401.5 162.8,378.3 C 128.97,355.8 99.1,329.6 101.1,329.6" id="2"/>
<path d="M 517.694,500.6 C 517.694,503.6 579.6,508.8 634.6,502.3 C 648.957,504.2 651.2,501.4 668.7,490.9 C 683.757,481.6 697.9,469.4 697.9,471.4" id="3"/>
<path d="M 105.13,325.6 C 107.13,327.6 117.9,322.1 126.2,319.1 C 147.203,319 169.4,321.1 168.4,319.1" id="4"/>
<path d="M 98.753,328.2 C 96.753,326.2 110.7,317.3 126.3,316.8 C 151.424,311.4 153.4,312.7 178.3,313.6 C 300.794,315.9 426.9,318.2 429.9,315.2" id="5"/>
<path d="M 422.673,315.8 C 419.673,318.8 467.7,314.4 515.2,317.5 C 572.862,326.9 628.6,345.4 625.6,343.4" id="6"/>
<path d="M 419.673,315.2 L 426.166,312" id="7"/>
<path d="M 443.153,317 C 442.153,319 438.9,302.4 443.2,287.8 C 447.926,264.1 455.1,263 462.6,240.7 C 464.979,226.2 460.4,223.1 465.9,206.6 C 470.692,196.6 474.7,196.5 474,190.4 C 480.099,181.3 477.3,179.6 477.2,166 C 479.7,154.2 482.7,145.9 487,138.4 C 488.352,139.8 491.9,139.4 493.5,138.4 C 504.053,143.5 506.2,144 516.2,149.8 C 528.715,157.2 531.1,158.1 534.1,166 C 542.006,182.4 543.6,185 548.7,198.5 C 554.954,239.2 554,241.3 561.7,278 C 567.047,309.9 566.9,339.4 564.9,336.4" id="8"/>
<path d="M 617.962,341.2 C 619.962,344.2 651.2,347.1 665,350.9 C 670.989,355.1 674.7,360.9 674.8,365.5 C 679.821,385.8 671.6,403.7 674.8,412.6 C 677.72,417.1 699.5,419.9 708.9,430.5 C 712.346,432.7 713.6,441.4 710.5,445.1 C 700.315,460.5 674.8,486.9 674.8,488.9" id="9"/>
<path d="M 106.87,326.2 C 107.87,325.2 104.9,281.7 108.5,241.8 C 114.603,206.6 126.3,170.1 124.7,168.7 C 122.787,166.7 136.6,185 147.5,206.1 C 152.298,219.8 148.4,222.5 157.2,238.5 C 170.499,272.5 191.5,308 194.5,310" id="10"/>
<path d="M 107.87,337.9 C 106.87,336.9 100.7,344.9 99.8,354.2 C 90.0077,397.1 82.8,438.9 83.5,440.2 C 81.5314,443.3 100.1,442.1 116,432.1 C 151.024,417.1 185.2,391.9 184.2,389.9" id="11"/>
<path d="M 277.576,371.8 C 276.576,370.8 276.6,375.6 277.6,376.7 C 276.372,377.7 270.6,375.3 271.1,373.4 C 267.803,369.9 269.2,365.6 272.7,368.5 C 276.218,367 286.6,368 287.3,370.2 C 284.893,369.5 285,376.7 287.3,378.3 C 284.119,377.3 274.9,378.2 276,379.9 C 276.834,376.9 276.8,372.1 276,375 C 280.089,372.7 291.9,374.7 288.9,376.7 C 289.939,374.7 281.8,374.7 280.8,376.7" id="12"/>
<path d="M 310.912,370.4 C 310.912,371.4 326,373.4 328.8,373.7 C 328.087,373.8 327.9,378.5 328.8,378.5 C 329.907,379.1 316.5,379.1 312.5,378.5 C 311.357,379.4 312.6,371.5 314.2,370.4 C 320.06,371.5 342.1,374 340.1,372 C 343.132,373 322,373 319,372 C 317.029,373 338,376.2 340.1,375.3 C 342.152,375.3 336.9,380.4 330.4,381.8 C 329.037,383.1 326.6,382.7 319,381.8 C 315.802,380.3 313.8,378.9 314.2,378.5 C 314.374,379 314.8,374.2 314.2,372 C 315.229,369.4 325.5,370 325.5,372" id="13"/>
<path d="M 384.584,384.8 C 385.584,383.8 398.6,385.4 397.6,386.4 C 395.567,384.4 373.2,387.7 374.8,389.6 C 375.802,392.6 379,385.1 379.7,381.5 C 382.37,381.4 394.8,384 395.9,383.1 C 392.958,384.2 388.4,390.8 387.8,391.3 C 384.304,392.7 377.5,391.9 376.5,391.3 C 376.118,390.1 376.2,383.9 376.5,384.8 C 374.992,382.1 388.1,382.8 391.1,384.8 C 393.077,381.8 383.3,381.8 381.3,384.8" id="14"/>
<path d="M 447.646,380.4 C 445.646,381.4 442.4,381.4 444.4,380.4 C 444.362,383.3 445.6,380.2 446,377.1 C 451.118,377.8 464.9,379.8 463.9,378.8 C 461.879,376.8 448.3,380.3 446,382 C 444.145,383 441.7,378.4 442.8,377.1 C 444.969,378.7 448.2,376.4 449.3,373.9 C 452.672,371.9 457.2,372.2 463.9,373.9 C 464.451,375 465.7,377.9 465.5,377.1 C 462.83,376.3 460,379.2 459,382 C 453.726,384.2 448.8,383.8 447.6,382 C 449.991,379.8 449,375.1 446,377.1 C 449.877,373.9 459,372.8 462.3,377.1 C 467.174,378.8 470.8,383 468.7,382 C 466.54,383.1 449.8,386.6 446,385.3 C 446.117,385.2 443.8,380.4 442.8,380.4" id="15"/>
<path d="M 512.825,386.8 C 512.825,385.8 533.4,385.6 533.9,386.8 C 536.972,389.8 535,394.3 530.7,391.6 C 526.065,389.8 521.2,390.2 514.4,391.6 C 509.119,392.4 503.6,387.8 503.1,385.1 C 500.067,386.1 502,383.1 506.3,381.9 C 511.085,378.9 520.7,379.6 522.6,381.9 C 522.564,384.9 521.7,389.5 520.9,386.8 C 518.88,391.1 505.1,391.4 503.1,388.4 C 504.084,389.4 518.7,391 517.7,390" id="16"/>
<path d="M 584.626,394.1 C 585.626,396.1 601.8,394.5 600.9,392.5 C 597.88,393.5 595.1,397.8 596,397.4 C 593.586,400.6 586.8,400.4 583,397.4 C 581.165,398.9 580.2,391.4 581.4,389.3 C 583.229,388.7 596.7,389.1 596,389.3 C 599.014,390.3 597,394.9 592.7,394.1 C 589.612,395.4 574.6,394.1 571.6,394.1 C 568.638,394.1 580,390.9 583,390.9" id="17"/>
<path d="M 639.065,380.1 C 642.065,380.1 628.7,372.1 624.5,370.4 C 622.314,372.2 624.4,367.8 627.7,365.5 C 635.825,361.4 642,360.5 645.6,365.5 C 650.474,367.4 656.1,372.7 658.5,375.3 C 659.074,375.2 656.6,381.8 655.3,383.4 C 655.047,383.7 647.9,384.6 639.1,383.4 C 629.922,377.3 620.2,367.4 621.2,370.4 C 623.234,369.4 650.8,372.7 650.8,375.7" id="18"/>
</g>
</g>
</svg>