<?xml version="1.0" ?>
<svg preserveAspectRatio="xMinYMin meet" version="1.1" viewBox="0 0 800 800" xmlns="http://www.w3.org/2000/svg">
<g fill="none" stroke="black" stroke-linecap="round" stroke-linejoin="round" stroke-width="3">
<g transform="translate(3.11349,1.58908) rotate(3,400,400) scale(0.948784,0.948173) skewX(2.10632) skewY(-0.601377)">
<path d="M 358.611,473.1 C 362.611,469.1 366.5,461.7 368.7,462.3 C 377.204,456.7 379.9,455.8 386.6,457.4 C 434.145,450.5 444.3,447.6 479.1,457.4 C 490.495,458.6 493.5,463.6 500.2,472.1 C 512.904,481.3 521.7,495.4 519.7,496.4" id="0"/>
<path d="M 371.104,459.6 C 368.104,456.6 343.8,513.6 335.4,571.6 C 327.857,607.1 330,614.4 333.8,639.7 C 331.533,653.8 336.7,662.4 343.5,657.6 C 356.221,662.3 374.7,665.3 390.6,657.6 C 420.521,644.1 428.9,636.6 453.9,613.8 C 478.179,590.5 478.4,585.7 492.9,560.2 C 504.383,539.3 500.9,536.5 507.5,524.5 C 514.617,512.2 526.6,494.8 528.6,488.8" id="1"/>
<path d="M 353.234,480.5 C 356.234,480.5 344.8,468.5 328.9,462.7 C 296.119,450.5 292.1,454.5 255.8,436.7 C 230.755,431.3 230.9,429.8 216.9,415.6 C 187.487,404.7 186.5,405.5 156.8,378.3 C 119.97,358.8 90.1,332.6 95.1,329.6" id="2"/>
<path d="M 514.694,493.6 C 515.694,495.6 577.6,500.8 631.6,495.3 C 646.957,495.2 649.2,492.4 665.7,483.9 C 680.757,473.6 694.9,461.4 694.9,464.4" id="3"/>
<path d="M 111.13,318.6 C 114.13,318.6 124.9,313.1 132.2,312.1 C 152.203,308 174.4,310.1 174.4,312.1" id="4"/>
<path d="M 103.753,328.2 C 98.753,322.2 112.7,313.3 131.3,316.8 C 158.424,308.4 160.4,309.7 183.3,313.6 C 303.794,317.9 429.9,320.2 434.9,315.2" id="5"/>
<path d="M 415.673,313.8 C 411.673,312.8 459.7,308.4 508.2,315.5 C 562.862,323.9 618.6,342.4 618.6,341.4" id="6"/>
<path d="M 420.673,316.2 L 427.166,313" id="7"/>
<path d="M 450.153,314 C 448.153,313 444.9,296.4 450.2,284.8 C 450.926,257.1 458.1,256 469.6,237.7 C 472.979,221.2 468.4,218.1 472.9,203.6 C 473.692,193.6 477.7,193.5 481,187.4 C 487.099,178.3 484.3,176.6 484.2,163 C 490.7,150.2 493.7,141.9 494,135.4 C 498.352,132.8 501.9,132.4 500.5,135.4 C 512.053,143.5 514.2,144 523.2,146.8 C 531.715,155.2 534.1,156.1 541.1,163 C 549.006,177.4 550.6,180 555.7,195.5 C 558.954,236.2 558,238.3 568.7,275 C 572.047,306.9 571.9,336.4 571.9,333.4" id="8"/>
<path d="M 616.962,337.2 C 620.962,341.2 652.2,344.1 664,346.9 C 669.989,348.1 673.7,353.9 673.8,361.5 C 682.821,379.8 674.6,397.7 673.8,408.6 C 678.72,414.1 700.5,416.9 707.9,426.5 C 710.346,428.7 711.6,437.4 709.5,441.1 C 699.315,453.5 673.8,479.9 673.8,484.9" id="9"/>
<path d="M 102.87,333.2 C 101.87,336.2 98.9,292.7 104.5,248.8 C 106.603,216.6 118.3,180.1 120.7,175.7 C 120.787,171.7 134.6,190 143.5,213.1 C 151.298,224.8 147.4,227.5 153.2,245.5 C 162.499,275.5 183.5,311 190.5,317" id="10"/>
<path d="M 103.87,333.9 C 100.87,333.9 94.7,341.9 95.8,350.2 C 82.0077,391.1 74.8,432.9 79.5,436.2 C 73.5314,439.3 92.1,438.1 112,428.1 C 149.024,412.1 183.2,386.9 180.2,385.9" id="11"/>
<path d="M 271.576,378.8 C 273.576,373.8 273.6,378.6 271.6,383.7 C 266.372,386.7 260.6,384.3 265.1,380.4 C 259.803,378.9 261.2,374.6 266.7,375.5 C 267.218,376 277.6,377 281.3,377.2 C 274.893,374.5 275,381.7 281.3,385.3 C 278.119,381.3 268.9,382.2 270,386.9 C 270.834,386.9 270.8,382.1 270,382 C 273.089,382.7 284.9,384.7 282.9,383.7 C 287.939,377.7 279.8,377.7 274.8,383.7" id="12"/>
<path d="M 303.912,363.4 C 303.912,367.4 319,369.4 321.8,366.7 C 319.087,366.8 318.9,371.5 321.8,371.5 C 318.907,376.1 305.5,376.1 305.5,371.5 C 303.357,376.4 304.6,368.5 307.2,363.4 C 312.06,362.5 334.1,365 333.1,365 C 334.132,364 313,364 312,365 C 309.029,367 330,370.2 333.1,368.3 C 334.152,366.3 328.9,371.4 323.4,374.8 C 318.037,378.1 315.6,377.7 312,374.8 C 310.802,370.3 308.8,368.9 307.2,371.5 C 306.374,375 306.8,370.2 307.2,365 C 311.229,359.4 321.5,360 318.5,365" id="13"/>
<path d="M 380.584,384.8 S 393.6,386.4 393.6,386.4 C 393.567,387.4 371.2,390.7 370.8,389.6 C 368.802,389.6 372,382.1 375.7,381.5 C 381.37,382.4 393.8,385 391.9,383.1 C 390.958,387.2 386.4,393.8 383.8,391.3 C 384.304,395.7 377.5,394.9 372.5,391.3 C 373.118,386.1 373.2,379.9 372.5,384.8 C 372.992,378.1 386.1,378.8 387.1,384.8 C 393.077,383.8 383.3,383.8 377.3,384.8" id="14"/>
<path d="M 451.646,374.4 C 446.646,377.4 443.4,377.4 448.4,374.4 C 449.362,381.3 450.6,378.2 450,371.1 C 452.118,368.8 465.9,370.8 467.9,372.8 C 469.879,366.8 456.3,370.3 450,376 C 445.145,377 442.7,372.4 446.8,371.1 C 446.969,368.7 450.2,366.4 453.3,367.9 C 453.672,364.9 458.2,365.2 467.9,367.9 C 470.451,368 471.7,370.9 469.5,371.1 C 466.83,370.3 464,373.2 463,376 C 455.726,382.2 450.8,381.8 451.6,376 C 456.991,374.8 456,370.1 450,371.1 C 449.877,366.9 459,365.8 466.3,371.1 C 472.174,369.8 475.8,374 472.7,376 C 474.54,377.1 457.8,380.6 450,379.3 C 446.117,375.2 443.8,370.4 446.8,374.4" id="15"/>
<path d="M 517.825,390.8 C 517.825,386.8 538.4,386.6 538.9,390.8 C 543.972,390.8 542,395.3 535.7,395.6 C 527.065,395.8 522.2,396.2 519.4,395.6 C 511.119,393.4 505.6,388.8 508.1,389.1 C 507.067,394.1 509,391.1 511.3,385.9 C 518.085,382.9 527.7,383.6 527.6,385.9 C 531.564,391.9 530.7,396.5 525.9,390.8 C 524.88,393.1 511.1,393.4 508.1,392.4 C 513.084,393.4 527.7,395 522.7,394" id="16"/>
<path d="M 578.626,399.1 C 583.626,398.1 599.8,396.5 594.9,397.5 C 594.88,400.5 592.1,404.8 590,402.4 C 584.586,406.6 577.8,406.4 577,402.4 C 574.165,404.9 573.2,397.4 575.4,394.3 C 576.229,390.7 589.7,391.1 590,394.3 C 593.014,394.3 591,398.9 586.7,399.1 C 586.612,402.4 571.6,401.1 565.6,399.1 C 566.638,397.1 578,393.9 577,395.9" id="17"/>
<path d="M 633.065,376.1 C 635.065,372.1 621.7,364.1 618.5,366.4 C 612.314,367.2 614.4,362.8 621.7,361.5 C 630.825,360.4 637,359.5 639.6,361.5 C 646.474,361.4 652.1,366.7 652.5,371.3 C 650.074,371.2 647.6,377.8 649.3,379.4 C 650.047,375.7 642.9,376.6 633.1,379.4 C 621.922,373.3 612.2,363.4 615.2,366.4 C 620.234,365.4 647.8,368.7 650.8,375.7" id="18"/>
</g>
</g>
</svg>