<?xml version="1.0" ?>
<svg preserveAspectRatio="xMinYMin meet" version="1.1" viewBox="0 0 800 800" xmlns="http://www.w3.org/2000/svg">
<g fill="none" stroke="black" stroke-linecap="round" stroke-linejoin="round" stroke-width="3">
<g transform="translate(2.99662,2.92478) rotate(6,400,400) scale(0.978727,0.932061) skewX(-2.57208) skewY(-2.74522)">
<path d="M 358.611,473.1 C 362.611,469.1 366.5,461.7 370.7,466.3 C 375.204,459.7 377.9,458.8 388.6,461.4 C 433.145,461.5 443.3,458.6 481.1,461.4 C 494.495,460.6 497.5,465.6 502.2,476.1 C 512.904,483.3 521.7,497.4 521.7,500.4" id="0"/>
<path d="M 372.104,459.6 C 371.104,455.6 346.8,512.6 336.4,571.6 C 330.857,607.1 333,614.4 334.8,639.7 C 333.533,651.8 338.7,660.4 344.5,657.6 C 358.221,666.3 376.7,669.3 391.6,657.6 C 421.521,639.1 429.9,631.6 454.9,613.8 C 482.179,588.5 482.4,583.7 493.9,560.2 C 508.383,543.3 504.9,540.5 508.5,524.5 C 512.617,511.2 524.6,493.8 529.6,488.8" id="1"/>
<path d="M 356.234,487.5 C 354.234,487.5 342.8,475.5 331.9,469.7 C 296.119,456.5 292.1,460.5 258.8,443.7 C 234.755,437.3 234.9,435.8 219.9,422.6 C 189.487,406.7 188.5,407.5 159.8,385.3 C 123.97,360.8 94.1,334.6 98.1,336.6" id="2"/>
<path d="M 517.694,494.6 C 519.694,499.6 581.6,504.8 634.6,496.3 C 646.957,495.2 649.2,492.4 668.7,484.9 C 683.757,479.6 697.9,467.4 697.9,465.4" id="3"/>
<path d="M 98.13,328.6 C 96.13,331.6 106.9,326.1 119.2,322.1 C 140.203,326 162.4,328.1 161.4,322.1" id="4"/>
<path d="M 98.753,334.2 C 94.753,333.2 108.7,324.3 126.3,322.8 C 149.424,317.4 151.4,318.7 178.3,319.6 C 301.794,323.9 427.9,326.2 429.9,321.2" id="5"/>
<path d="M 415.673,315.8 C 415.673,318.8 463.7,314.4 508.2,317.5 C 568.862,327.9 624.6,346.4 618.6,343.4" id="6"/>
<path d="M 426.673,321.2 L 433.166,318" id="7"/>
<path d="M 446.153,314 C 447.153,317 443.9,300.4 446.2,284.8 C 447.926,264.1 455.1,263 465.6,237.7 C 469.979,226.2 465.4,223.1 468.9,203.6 C 471.692,192.6 475.7,192.5 477,187.4 C 482.099,174.3 479.3,172.6 480.2,163 C 479.7,154.2 482.7,145.9 490,135.4 C 489.352,135.8 492.9,135.4 496.5,135.4 C 509.053,143.5 511.2,144 519.2,146.8 C 529.715,151.2 532.1,152.1 537.1,163 C 546.006,178.4 547.6,181 551.7,195.5 C 555.954,233.2 555,235.3 564.7,275 C 572.047,302.9 571.9,332.4 567.9,333.4" id="8"/>
<path d="M 614.962,340.2 C 617.962,339.2 649.2,342.1 662,349.9 C 668.989,354.1 672.7,359.9 671.8,364.5 C 674.821,382.8 666.6,400.7 671.8,411.6 C 672.72,416.1 694.5,418.9 705.9,429.5 C 713.346,433.7 714.6,442.4 707.5,444.1 C 695.315,458.5 669.8,484.9 671.8,487.9" id="9"/>
<path d="M 110.87,322.2 C 107.87,318.2 104.9,274.7 112.5,237.8 C 120.603,203.6 132.3,167.1 128.7,164.7 C 130.787,162.7 144.6,181 151.5,202.1 C 156.298,217.8 152.4,220.5 161.2,234.5 C 170.499,266.5 191.5,302 198.5,306" id="10"/>
<path d="M 110.87,342.9 C 106.87,342.9 100.7,350.9 102.8,359.2 C 92.0077,400.1 84.8,441.9 86.5,445.2 C 85.5314,445.3 104.1,444.1 119,437.1 C 157.024,425.1 191.2,399.9 187.2,394.9" id="11"/>
<path d="M 272.576,373.8 C 270.576,370.8 270.6,375.6 272.6,378.7 C 270.372,380.7 264.6,378.3 266.1,375.4 C 258.803,368.9 260.2,364.6 267.7,370.5 C 274.218,368 284.6,369 282.3,372.2 C 280.893,370.5 281,377.7 282.3,380.3 C 281.119,379.3 271.9,380.2 271,381.9 C 270.834,378.9 270.8,374.1 271,377 C 278.089,371.7 289.9,373.7 283.9,378.7 C 284.939,375.7 276.8,375.7 275.8,378.7" id="12"/>
<path d="M 316.912,368.4 C 314.912,365.4 330,367.4 334.8,371.7 C 333.087,370.8 332.9,375.5 334.8,376.5 C 337.907,374.1 324.5,374.1 318.5,376.5 C 313.357,380.4 314.6,372.5 320.2,368.4 C 322.06,366.5 344.1,369 346.1,370 C 346.132,367 325,367 325,370 C 319.029,373 340,376.2 346.1,373.3 C 349.152,369.3 343.9,374.4 336.4,379.8 C 331.037,380.1 328.6,379.7 325,379.8 C 325.802,381.3 323.8,379.9 320.2,376.5 C 320.374,378 320.8,373.2 320.2,370 C 324.229,367.4 334.5,368 331.5,370" id="13"/>
<path d="M 389.584,389.8 C 388.584,387.8 401.6,389.4 402.6,391.4 C 396.567,386.4 374.2,389.7 379.8,394.6 C 378.802,398.6 382,391.1 384.7,386.5 C 385.37,389.4 397.8,392 400.9,388.1 C 397.958,390.2 393.4,396.8 392.8,396.3 C 386.304,400.7 379.5,399.9 381.5,396.3 C 385.118,395.1 385.2,388.9 381.5,389.8 C 380.992,388.1 394.1,388.8 396.1,389.8 C 396.077,389.8 386.3,389.8 386.3,389.8" id="14"/>
<path d="M 444.646,381.4 C 441.646,379.4 438.4,379.4 441.4,381.4 C 445.362,382.3 446.6,379.2 443,378.1 C 444.118,380.8 457.9,382.8 460.9,379.8 C 460.879,374.8 447.3,378.3 443,383 C 437.145,381 434.7,376.4 439.8,378.1 C 445.969,377.7 449.2,375.4 446.3,374.9 C 451.672,373.9 456.2,374.2 460.9,374.9 C 465.451,377 466.7,379.9 462.5,378.1 C 463.83,374.3 461,377.2 456,383 C 448.726,383.2 443.8,382.8 444.6,383 C 450.991,378.8 450,374.1 443,378.1 C 444.877,378.9 454,377.8 459.3,378.1 C 460.174,376.8 463.8,381 465.7,383 C 465.54,386.1 448.8,389.6 443,386.3 C 440.117,383.2 437.8,378.4 439.8,381.4" id="15"/>
<path d="M 515.825,393.8 C 513.825,390.8 534.4,390.6 536.9,393.8 C 541.972,398.8 540,403.3 533.7,398.6 C 525.065,393.8 520.2,394.2 517.4,398.6 C 512.119,396.4 506.6,391.8 506.1,392.1 C 502.067,393.1 504,390.1 509.3,388.9 C 515.085,382.9 524.7,383.6 525.6,388.9 C 523.564,388.9 522.7,393.5 523.9,393.8 C 519.88,402.1 506.1,402.4 506.1,395.4 C 508.084,396.4 522.7,398 520.7,397" id="16"/>
<path d="M 590.626,395.1 C 595.626,401.1 611.8,399.5 606.9,393.5 C 602.88,397.5 600.1,401.8 602,398.4 C 595.586,405.6 588.8,405.4 589,398.4 C 584.165,400.9 583.2,393.4 587.4,390.3 C 586.229,385.7 599.7,386.1 602,390.3 C 603.014,394.3 601,398.9 598.7,395.1 C 591.612,397.4 576.6,396.1 577.6,395.1 C 578.638,393.1 590,389.9 589,391.9" id="17"/>
<path d="M 644.065,386.1 C 647.065,387.1 633.7,379.1 629.5,376.4 C 627.314,378.2 629.4,373.8 632.7,371.5 C 637.825,364.4 644,363.5 650.6,371.5 C 651.474,375.4 657.1,380.7 663.5,381.3 C 667.074,380.2 664.6,386.8 660.3,389.4 C 658.047,385.7 650.9,386.6 644.1,389.4 C 632.922,385.3 623.2,375.4 626.2,376.4 C 626.234,376.4 653.8,379.7 650.8,375.7" id="18"/>
</g>
</g>
</svg>