<?xml version="1.0" ?>
<svg preserveAspectRatio="xMinYMin meet" version="1.1" viewBox="0 0 800 800" xmlns="http://www.w3.org/2000/svg">
<g fill="none" stroke="black" stroke-linecap="round" stroke-linejoin="round" stroke-width="3">
<g transform="translate(-0.0159275,-4.81393) rotate(-1,400,400) scale(1.02393,0.968914) skewX(-2.70167) skewY(1.15427)">
<path d="M 358.611,473.1 C 368.611,469.1 372.5,461.7 374.7,459.3 C 380.204,451.7 382.9,450.8 392.6,454.4 C 435.145,451.5 445.3,448.6 485.1,454.4 C 498.495,450.6 501.5,455.6 506.2,469.1 C 520.904,475.3 529.7,489.4 525.7,493.4" id="0"/>
<path d="M 367.104,463.6 C 362.104,466.6 337.8,523.6 331.4,575.6 C 325.857,605.1 328,612.4 329.8,643.7 C 324.533,650.8 329.7,659.4 339.5,661.6 C 351.221,669.3 369.7,672.3 386.6,661.6 C 412.521,645.1 420.9,637.6 449.9,617.8 C 473.179,592.5 473.4,587.7 488.9,564.2 C 498.383,550.3 494.9,547.5 503.5,528.5 C 515.617,515.2 527.6,497.8 524.6,492.8" id="1"/>
<path d="M 354.234,481.5 C 358.234,476.5 346.8,464.5 329.9,463.7 C 293.119,446.5 289.1,450.5 256.8,437.7 C 232.755,431.3 232.9,429.8 217.9,416.6 C 186.487,403.7 185.5,404.5 157.8,379.3 C 123.97,353.8 94.1,327.6 96.1,330.6" id="2"/>
<path d="M 523.694,498.6 C 526.694,504.6 588.6,509.8 640.6,500.3 C 653.957,503.2 656.2,500.4 674.7,488.9 C 689.757,480.6 703.9,468.4 703.9,469.4" id="3"/>
<path d="M 106.13,326.6 C 111.13,330.6 121.9,325.1 127.2,320.1 C 144.203,323 166.4,325.1 169.4,320.1" id="4"/>
<path d="M 91.753,323.2 C 91.753,325.2 105.7,316.3 119.3,311.8 C 148.424,303.4 150.4,304.7 171.3,308.6 C 293.794,311.9 419.9,314.2 422.9,310.2" id="5"/>
<path d="M 415.673,308.8 C 410.673,310.8 458.7,306.4 508.2,310.5 C 564.862,322.9 620.6,341.4 618.6,336.4" id="6"/>
<path d="M 425.673,317.2 L 432.166,314" id="7"/>
<path d="M 445.153,315 C 446.153,314 442.9,297.4 445.2,285.8 C 452.926,260.1 460.1,259 464.6,238.7 C 464.979,228.2 460.4,225.1 467.9,204.6 C 474.692,190.6 478.7,190.5 476,188.4 C 483.099,175.3 480.3,173.6 479.2,164 C 481.7,152.2 484.7,143.9 489,136.4 C 490.352,134.8 493.9,134.4 495.5,136.4 C 510.053,139.5 512.2,140 518.2,147.8 C 530.715,153.2 533.1,154.1 536.1,164 C 540.006,180.4 541.6,183 550.7,196.5 C 552.954,235.2 552,237.3 563.7,276 C 567.047,310.9 566.9,340.4 566.9,334.4" id="8"/>
<path d="M 616.962,337.2 S 648.2,340.1 664,346.9 C 665.989,349.1 669.7,354.9 673.8,361.5 C 679.821,378.8 671.6,396.7 673.8,408.6 C 680.72,412.1 702.5,414.9 707.9,426.5 C 711.346,426.7 712.6,435.4 709.5,441.1 C 703.315,457.5 677.8,483.9 673.8,484.9" id="9"/>
<path d="M 110.87,330.2 C 114.87,331.2 111.9,287.7 112.5,245.8 C 117.603,210.6 129.3,174.1 128.7,172.7 C 127.787,167.7 141.6,186 151.5,210.1 C 155.298,223.8 151.4,226.5 161.2,242.5 C 172.499,279.5 193.5,315 198.5,314" id="10"/>
<path d="M 108.87,344.9 C 108.87,345.9 102.7,353.9 100.8,361.2 C 93.0077,401.1 85.8,442.9 84.5,447.2 C 81.5314,454.3 100.1,453.1 117,439.1 C 149.024,421.1 183.2,395.9 185.2,396.9" id="11"/>
<path d="M 271.576,374.8 C 269.576,376.8 269.6,381.6 271.6,379.7 C 273.372,381.7 267.6,379.3 265.1,376.4 C 259.803,370.9 261.2,366.6 266.7,371.5 C 267.218,366 277.6,367 281.3,373.2 C 279.893,376.5 280,383.7 281.3,381.3 C 280.119,377.3 270.9,378.2 270,382.9 C 268.834,379.9 268.8,375.1 270,378 C 270.089,371.7 281.9,373.7 282.9,379.7 C 284.939,380.7 276.8,380.7 274.8,379.7" id="12"/>
<path d="M 315.912,372.4 C 317.912,373.4 333,375.4 333.8,375.7 C 332.087,379.8 331.9,384.5 333.8,380.5 C 338.907,379.1 325.5,379.1 317.5,380.5 C 314.357,382.4 315.6,374.5 319.2,372.4 C 327.06,377.5 349.1,380 345.1,374 C 345.132,371 324,371 324,374 C 318.029,376 339,379.2 345.1,377.3 C 350.152,374.3 344.9,379.4 335.4,383.8 C 338.037,387.1 335.6,386.7 324,383.8 C 321.802,381.3 319.8,379.9 319.2,380.5 C 322.374,383 322.8,378.2 319.2,374 C 324.229,372.4 334.5,373 330.5,374" id="13"/>
<path d="M 383.584,384.8 C 387.584,383.8 400.6,385.4 396.6,386.4 C 396.567,384.4 374.2,387.7 373.8,389.6 C 377.802,395.6 381,388.1 378.7,381.5 C 378.37,377.4 390.8,380 394.9,383.1 C 388.958,380.2 384.4,386.8 386.8,391.3 C 386.304,393.7 379.5,392.9 375.5,391.3 C 376.118,393.1 376.2,386.9 375.5,384.8 C 376.992,384.1 390.1,384.8 390.1,384.8 C 391.077,379.8 381.3,379.8 380.3,384.8" id="14"/>
<path d="M 453.646,387.4 C 455.646,391.4 452.4,391.4 450.4,387.4 C 448.362,388.3 449.6,385.2 452,384.1 C 456.118,386.8 469.9,388.8 469.9,385.8 C 464.879,384.8 451.3,388.3 452,389 C 450.145,389 447.7,384.4 448.8,384.1 C 449.969,383.7 453.2,381.4 455.3,380.9 C 456.672,381.9 461.2,382.2 469.9,380.9 C 472.451,379 473.7,381.9 471.5,384.1 C 464.83,383.3 462,386.2 465,389 C 457.726,387.2 452.8,386.8 453.6,389 C 453.991,385.8 453,381.1 452,384.1 C 454.877,379.9 464,378.8 468.3,384.1 C 475.174,386.8 478.8,391 474.7,389 C 472.54,388.1 455.8,391.6 452,392.3 C 455.117,394.2 452.8,389.4 448.8,387.4" id="15"/>
<path d="M 507.825,391.8 C 509.825,386.8 530.4,386.6 528.9,391.8 C 534.972,393.8 533,398.3 525.7,396.6 C 525.065,392.8 520.2,393.2 509.4,396.6 C 501.119,395.4 495.6,390.8 498.1,390.1 C 493.067,390.1 495,387.1 501.3,386.9 C 508.085,380.9 517.7,381.6 517.6,386.9 C 521.564,390.9 520.7,395.5 515.9,391.8 C 515.88,393.1 502.1,393.4 498.1,393.4 C 497.084,392.4 511.7,394 512.7,395" id="16"/>
<path d="M 588.626,400.1 C 586.626,404.1 602.8,402.5 604.9,398.5 C 598.88,398.5 596.1,402.8 600,403.4 C 601.586,408.6 594.8,408.4 587,403.4 C 582.165,400.9 581.2,393.4 585.4,395.3 C 584.229,397.7 597.7,398.1 600,395.3 C 601.014,393.3 599,397.9 596.7,400.1 C 594.612,402.4 579.6,401.1 575.6,400.1 C 575.638,397.1 587,393.9 587,396.9" id="17"/>
<path d="M 645.065,375.1 C 652.065,376.1 638.7,368.1 630.5,365.4 C 626.314,367.2 628.4,362.8 633.7,360.5 C 644.825,357.4 651,356.5 651.6,360.5 C 652.474,361.4 658.1,366.7 664.5,370.3 C 668.074,374.2 665.6,380.8 661.3,378.4 C 661.047,381.7 653.9,382.6 645.1,378.4 C 634.922,375.3 625.2,365.4 627.2,365.4 C 633.234,368.4 660.8,371.7 650.8,375.7" id="18"/>
</g>
</g>
</svg>