<?xml version="1.0" ?>
<svg preserveAspectRatio="xMinYMin meet" version="1.1" viewBox="0 0 800 800" xmlns="http://www.w3.org/2000/svg">
<g fill="none" stroke="black" stroke-linecap="round" stroke-linejoin="round" stroke-width="3">
<g transform="translate(-2.21229,2.26475) rotate(1,400,400) scale(0.963712,0.949267) skewX(-2.374) skewY(0.930887)">
<path d="M 358.611,473.1 C 354.611,470.1 358.5,462.7 365.7,463.3 C 372.204,462.7 374.9,461.8 383.6,458.4 C 427.145,453.5 437.3,450.6 476.1,458.4 C 485.495,455.6 488.5,460.6 497.2,473.1 C 505.904,478.3 514.7,492.4 516.7,497.4" id="0"/>
<path d="M 371.104,467.6 C 371.104,464.6 346.8,521.6 335.4,579.6 C 327.857,608.1 330,615.4 333.8,647.7 C 332.533,654.8 337.7,663.4 343.5,665.6 C 357.221,668.3 375.7,671.3 390.6,665.6 C 416.521,651.1 424.9,643.6 453.9,621.8 C 475.179,597.5 475.4,592.7 492.9,568.2 C 509.383,549.3 505.9,546.5 507.5,532.5 C 515.617,513.2 527.6,495.8 528.6,496.8" id="1"/>
<path d="M 354.234,478.5 C 358.234,477.5 346.8,465.5 329.9,460.7 C 295.119,444.5 291.1,448.5 256.8,434.7 C 231.755,426.3 231.9,424.8 217.9,413.6 C 189.487,401.7 188.5,402.5 157.8,376.3 C 126.97,352.8 97.1,326.6 96.1,327.6" id="2"/>
<path d="M 511.694,496.6 C 509.694,495.6 571.6,500.8 628.6,498.3 C 644.957,499.2 647.2,496.4 662.7,486.9 C 676.757,477.6 690.9,465.4 691.9,467.4" id="3"/>
<path d="M 102.13,329.6 C 106.13,333.6 116.9,328.1 123.2,323.1 C 145.203,325 167.4,327.1 165.4,323.1" id="4"/>
<path d="M 96.753,334.2 C 92.753,331.2 106.7,322.3 124.3,322.8 C 151.424,317.4 153.4,318.7 176.3,319.6 C 294.794,323.9 420.9,326.2 427.9,321.2" id="5"/>
<path d="M 425.673,322.8 C 419.673,322.8 467.7,318.4 518.2,324.5 C 575.862,330.9 631.6,349.4 628.6,350.4" id="6"/>
<path d="M 418.673,310.2 L 425.166,307" id="7"/>
<path d="M 436.153,319 C 432.153,323 428.9,306.4 436.2,289.8 C 439.926,262.1 447.1,261 455.6,242.7 C 456.979,227.2 452.4,224.1 458.9,208.6 C 466.692,197.6 470.7,197.5 467,192.4 C 472.099,181.3 469.3,179.6 470.2,168 C 475.7,156.2 478.7,147.9 480,140.4 C 483.352,139.8 486.9,139.4 486.5,140.4 C 496.053,145.5 498.2,146 509.2,151.8 C 525.715,155.2 528.1,156.1 527.1,168 C 534.006,181.4 535.6,184 541.7,200.5 C 543.954,243.2 543,245.3 554.7,280 C 556.047,307.9 555.9,337.4 557.9,338.4" id="8"/>
<path d="M 619.962,345.2 C 621.962,351.2 653.2,354.1 667,354.9 C 672.989,356.1 676.7,361.9 676.8,369.5 C 683.821,393.8 675.6,411.7 676.8,416.6 C 678.72,419.1 700.5,421.9 710.9,434.5 C 713.346,434.7 714.6,443.4 712.5,449.1 C 702.315,464.5 676.8,490.9 676.8,492.9" id="9"/>
<path d="M 113.87,322.2 C 111.87,322.2 108.9,278.7 115.5,237.8 C 120.603,199.6 132.3,163.1 131.7,164.7 C 128.787,162.7 142.6,181 154.5,202.1 C 155.298,213.8 151.4,216.5 164.2,234.5 C 174.499,265.5 195.5,301 201.5,306" id="10"/>
<path d="M 107.87,340.9 C 107.87,337.9 101.7,345.9 99.8,357.2 C 94.0077,398.1 86.8,439.9 83.5,443.2 C 78.5314,442.3 97.1,441.1 116,435.1 C 153.024,418.1 187.2,392.9 184.2,392.9" id="11"/>
<path d="M 284.576,375.8 C 280.576,375.8 280.6,380.6 284.6,380.7 C 287.372,385.7 281.6,383.3 278.1,377.4 C 271.803,371.9 273.2,367.6 279.7,372.5 C 287.218,373 297.6,374 294.3,374.2 C 290.893,373.5 291,380.7 294.3,382.3 C 294.119,381.3 284.9,382.2 283,383.9 C 279.834,380.9 279.8,376.1 283,379 C 285.089,375.7 296.9,377.7 295.9,380.7 C 300.939,374.7 292.8,374.7 287.8,380.7" id="12"/>
<path d="M 303.912,377.4 C 299.912,382.4 315,384.4 321.8,380.7 C 322.087,378.8 321.9,383.5 321.8,385.5 C 326.907,382.1 313.5,382.1 305.5,385.5 C 308.357,390.4 309.6,382.5 307.2,377.4 C 313.06,375.5 335.1,378 333.1,379 C 340.132,378 319,378 312,379 C 312.029,384 333,387.2 333.1,382.3 C 334.152,382.3 328.9,387.4 323.4,388.8 C 325.037,390.1 322.6,389.7 312,388.8 C 304.802,384.3 302.8,382.9 307.2,385.5 C 311.374,390 311.8,385.2 307.2,379 C 312.229,374.4 322.5,375 318.5,379" id="13"/>
<path d="M 385.584,388.8 C 382.584,383.8 395.6,385.4 398.6,390.4 C 393.567,389.4 371.2,392.7 375.8,393.6 C 374.802,392.6 378,385.1 380.7,385.5 C 384.37,386.4 396.8,389 396.9,387.1 C 395.958,386.2 391.4,392.8 388.8,395.3 C 381.304,395.7 374.5,394.9 377.5,395.3 C 375.118,398.1 375.2,391.9 377.5,388.8 C 376.992,385.1 390.1,385.8 392.1,388.8 C 394.077,389.8 384.3,389.8 382.3,388.8" id="14"/>
<path d="M 448.646,377.4 C 443.646,380.4 440.4,380.4 445.4,377.4 C 441.362,384.3 442.6,381.2 447,374.1 C 449.118,373.8 462.9,375.8 464.9,375.8 C 461.879,375.8 448.3,379.3 447,379 C 448.145,380 445.7,375.4 443.8,374.1 C 443.969,371.7 447.2,369.4 450.3,370.9 C 452.672,364.9 457.2,365.2 464.9,370.9 C 464.451,376 465.7,378.9 466.5,374.1 C 461.83,371.3 459,374.2 460,379 C 450.726,378.2 445.8,377.8 448.6,379 C 452.991,375.8 452,371.1 447,374.1 C 447.877,373.9 457,372.8 463.3,374.1 C 470.174,375.8 473.8,380 469.7,379 C 464.54,381.1 447.8,384.6 447,382.3 C 449.117,378.2 446.8,373.4 443.8,377.4" id="15"/>
<path d="M 508.825,390.8 C 510.825,385.8 531.4,385.6 529.9,390.8 C 535.972,391.8 534,396.3 526.7,395.6 C 521.065,389.8 516.2,390.2 510.4,395.6 C 508.119,392.4 502.6,387.8 499.1,389.1 C 496.067,394.1 498,391.1 502.3,385.9 C 511.085,379.9 520.7,380.6 518.6,385.9 C 517.564,385.9 516.7,390.5 516.9,390.8 C 517.88,395.1 504.1,395.4 499.1,392.4 C 496.084,390.4 510.7,392 513.7,394" id="16"/>
<path d="M 588.626,400.1 C 590.626,398.1 606.8,396.5 604.9,398.5 C 603.88,399.5 601.1,403.8 600,403.4 C 596.586,405.6 589.8,405.4 587,403.4 C 588.165,406.9 587.2,399.4 585.4,395.3 C 587.229,397.7 600.7,398.1 600,395.3 C 603.014,398.3 601,402.9 596.7,400.1 C 597.612,398.4 582.6,397.1 575.6,400.1 C 571.638,398.1 583,394.9 587,396.9" id="17"/>
<path d="M 642.065,383.1 C 643.065,386.1 629.7,378.1 627.5,373.4 C 625.314,372.2 627.4,367.8 630.7,368.5 C 641.825,366.4 648,365.5 648.6,368.5 C 651.474,367.4 657.1,372.7 661.5,378.3 C 662.074,379.2 659.6,385.8 658.3,386.4 C 656.047,385.7 648.9,386.6 642.1,386.4 C 628.922,384.3 619.2,374.4 624.2,373.4 C 624.234,369.4 651.8,372.7 650.8,375.7" id="18"/>
</g>
</g>
</svg>