<?xml version="1.0" ?>
<svg preserveAspectRatio="xMinYMin meet" version="1.1" viewBox="0 0 800 800" xmlns="http://www.w3.org/2000/svg">
<g fill="none" stroke="black" stroke-linecap="round" stroke-linejoin="round" stroke-width="3">
<g transform="translate(3.22928,-0.295169) rotate(-7,400,400) scale(1.06359,1.03783) skewX(-2.05579) skewY(-2.20189)">
<path d="M 358.611,473.1 C 362.611,468.1 366.5,460.7 375.7,459.3 C 383.204,454.7 385.9,453.8 393.6,454.4 C 435.145,447.5 445.3,444.6 486.1,454.4 C 493.495,449.6 496.5,454.6 507.2,469.1 C 513.904,475.3 522.7,489.4 526.7,493.4" id="0"/>
<path d="M 364.104,464.6 C 360.104,460.6 335.8,517.6 328.4,576.6 C 321.857,609.1 324,616.4 326.8,644.7 C 329.533,652.8 334.7,661.4 336.5,662.6 C 353.221,666.3 371.7,669.3 383.6,662.6 C 406.521,647.1 414.9,639.6 446.9,618.8 C 468.179,600.5 468.4,595.7 485.9,565.2 C 498.383,544.3 494.9,541.5 500.5,529.5 C 511.617,514.2 523.6,496.8 521.6,493.8" id="1"/>
<path d="M 359.234,473.5 C 364.234,473.5 352.8,461.5 334.9,455.7 C 301.119,444.5 297.1,448.5 261.8,429.7 C 240.755,425.3 240.9,423.8 222.9,408.6 C 194.487,390.7 193.5,391.5 162.8,371.3 C 124.97,345.8 95.1,319.6 101.1,322.6" id="2"/>
<path d="M 521.694,500.6 C 523.694,505.6 585.6,510.8 638.6,502.3 C 651.957,505.2 654.2,502.4 672.7,490.9 C 685.757,477.6 699.9,465.4 701.9,471.4" id="3"/>
<path d="M 111.13,325.6 C 116.13,327.6 126.9,322.1 132.2,319.1 C 157.203,315 179.4,317.1 174.4,319.1" id="4"/>
<path d="M 93.753,326.2 C 93.753,325.2 107.7,316.3 121.3,314.8 C 146.424,310.4 148.4,311.7 173.3,311.6 C 295.794,316.9 421.9,319.2 424.9,313.2" id="5"/>
<path d="M 421.673,321.8 C 418.673,321.8 466.7,317.4 514.2,323.5 C 568.862,328.9 624.6,347.4 624.6,349.4" id="6"/>
<path d="M 416.673,322.2 L 423.166,319" id="7"/>
<path d="M 443.153,320 C 441.153,318 437.9,301.4 443.2,290.8 C 446.926,265.1 454.1,264 462.6,243.7 C 462.979,229.2 458.4,226.1 465.9,209.6 C 474.692,203.6 478.7,203.5 474,193.4 C 483.099,181.3 480.3,179.6 477.2,169 C 477.7,153.2 480.7,144.9 487,141.4 C 485.352,139.8 488.9,139.4 493.5,141.4 C 501.053,146.5 503.2,147 516.2,152.8 C 532.715,158.2 535.1,159.1 534.1,169 C 546.006,187.4 547.6,190 548.7,201.5 C 551.954,241.2 551,243.3 561.7,281 C 571.047,312.9 570.9,342.4 564.9,339.4" id="8"/>
<path d="M 614.962,335.2 C 617.962,336.2 649.2,339.1 662,344.9 C 666.989,349.1 670.7,354.9 671.8,359.5 C 678.821,380.8 670.6,398.7 671.8,406.6 C 675.72,415.1 697.5,417.9 705.9,424.5 C 708.346,425.7 709.6,434.4 707.5,439.1 C 699.315,450.5 673.8,476.9 671.8,482.9" id="9"/>
<path d="M 99.87,331.2 C 103.87,333.2 100.9,289.7 101.5,246.8 C 111.603,209.6 123.3,173.1 117.7,173.7 C 118.787,174.7 132.6,193 140.5,211.1 C 146.298,228.8 142.4,231.5 150.2,243.5 C 159.499,279.5 180.5,315 187.5,315" id="10"/>
<path d="M 109.87,338.9 C 112.87,336.9 106.7,344.9 101.8,355.2 C 91.0077,397.1 83.8,438.9 85.5,441.2 C 85.5314,444.3 104.1,443.1 118,433.1 C 150.024,414.1 184.2,388.9 186.2,390.9" id="11"/>
<path d="M 276.576,373.8 C 274.576,368.8 274.6,373.6 276.6,378.7 C 271.372,378.7 265.6,376.3 270.1,375.4 C 264.803,368.9 266.2,364.6 271.7,370.5 C 274.218,366 284.6,367 286.3,372.2 C 281.893,372.5 282,379.7 286.3,380.3 C 286.119,375.3 276.9,376.2 275,381.9 C 278.834,374.9 278.8,370.1 275,377 C 275.089,376.7 286.9,378.7 287.9,378.7 C 292.939,373.7 284.8,373.7 279.8,378.7" id="12"/>
<path d="M 309.912,371.4 C 310.912,376.4 326,378.4 327.8,374.7 C 329.087,371.8 328.9,376.5 327.8,379.5 C 325.907,379.1 312.5,379.1 311.5,379.5 C 309.357,382.4 310.6,374.5 313.2,371.4 C 323.06,375.5 345.1,378 339.1,373 C 342.132,375 321,375 318,373 C 314.029,377 335,380.2 339.1,376.3 C 345.152,376.3 339.9,381.4 329.4,382.8 C 329.037,386.1 326.6,385.7 318,382.8 C 312.802,382.3 310.8,380.9 313.2,379.5 C 315.374,377 315.8,372.2 313.2,373 C 317.229,373.4 327.5,374 324.5,373" id="13"/>
<path d="M 379.584,386.8 C 381.584,382.8 394.6,384.4 392.6,388.4 C 391.567,384.4 369.2,387.7 369.8,391.6 C 366.802,398.6 370,391.1 374.7,383.5 C 375.37,387.4 387.8,390 390.9,385.1 C 391.958,384.2 387.4,390.8 382.8,393.3 C 378.304,392.7 371.5,391.9 371.5,393.3 C 369.118,390.1 369.2,383.9 371.5,386.8 C 365.992,383.1 379.1,383.8 386.1,386.8 C 384.077,379.8 374.3,379.8 376.3,386.8" id="14"/>
<path d="M 448.646,375.4 C 446.646,376.4 443.4,376.4 445.4,375.4 C 442.362,374.3 443.6,371.2 447,372.1 C 448.118,372.8 461.9,374.8 464.9,373.8 C 465.879,367.8 452.3,371.3 447,377 C 444.145,374 441.7,369.4 443.8,372.1 C 445.969,375.7 449.2,373.4 450.3,368.9 C 457.672,363.9 462.2,364.2 464.9,368.9 C 464.451,373 465.7,375.9 466.5,372.1 C 459.83,370.3 457,373.2 460,377 C 455.726,377.2 450.8,376.8 448.6,377 C 451.991,373.8 451,369.1 447,372.1 C 449.877,367.9 459,366.8 463.3,372.1 C 467.174,370.8 470.8,375 469.7,377 C 466.54,380.1 449.8,383.6 447,380.3 C 444.117,384.2 441.8,379.4 443.8,375.4" id="15"/>
<path d="M 505.825,393.8 C 507.825,394.8 528.4,394.6 526.9,393.8 C 528.972,398.8 527,403.3 523.7,398.6 C 522.065,398.8 517.2,399.2 507.4,398.6 C 500.119,395.4 494.6,390.8 496.1,392.1 C 497.067,391.1 499,388.1 499.3,388.9 C 507.085,381.9 516.7,382.6 515.6,388.9 C 516.564,391.9 515.7,396.5 513.9,393.8 C 514.88,396.1 501.1,396.4 496.1,395.4 C 500.084,399.4 514.7,401 510.7,397" id="16"/>
<path d="M 590.626,390.1 C 595.626,396.1 611.8,394.5 606.9,388.5 C 601.88,387.5 599.1,391.8 602,393.4 C 597.586,398.6 590.8,398.4 589,393.4 C 589.165,393.9 588.2,386.4 587.4,385.3 C 589.229,385.7 602.7,386.1 602,385.3 C 608.014,384.3 606,388.9 598.7,390.1 C 596.612,391.4 581.6,390.1 577.6,390.1 C 576.638,394.1 588,390.9 589,386.9" id="17"/>
<path d="M 632.065,386.1 C 637.065,389.1 623.7,381.1 617.5,376.4 C 616.314,374.2 618.4,369.8 620.7,371.5 C 632.825,366.4 639,365.5 638.6,371.5 C 646.474,370.4 652.1,375.7 651.5,381.3 C 650.074,377.2 647.6,383.8 648.3,389.4 C 651.047,388.7 643.9,389.6 632.1,389.4 C 624.922,385.3 615.2,375.4 614.2,376.4 C 613.234,374.4 640.8,377.7 650.8,375.7" id="18"/>
</g>
</g>
</svg>