<?xml version="1.0" ?>
<!DOCTYPE svg
  PUBLIC '-//W3C//DTD SVG 1.1//EN'
  'http://www.w3.org/Graphics/SVG/1.1/DTD/svg11.dtd'>
<svg preserveAspectRatio="xMinYMin meet" version="1.1" viewBox="0 0 800 800" xmlns="http://www.w3.org/2000/svg">
<g fill="none" stroke="black" stroke-linecap="round" stroke-linejoin="round" stroke-width="1.8481">
<g transform="rotate(0.0,200,200) translate(87.52,135.4065) scale(1.6233) translate(0.0,-60.0) skewX(0.0) skewY(0.0)">
<path d="M 167,268 C 165,269 167.367,264.481 172,262 C 173.99,258.756 175.639,258.236 183,259 C 212.451,257.789 218.727,256.008 240,259 C 246.78,258.743 248.603,261.819 253,268 C 260.584,272.321 266,281 265,283" id="0"/>
<path d="M 171,264 C 173,262 158.016,297.142 149,333 C 145.974,352.428 147.294,356.917 148,375 C 146.471,379.991 149.647,385.26 154,386 C 159.215,388.268 170.603,390.128 183,386 C 202.826,378.922 207.971,374.266 222,359 C 234.729,346.925 234.843,343.929 246,326 C 250.871,315.214 248.756,313.488 255,304 C 262.64,294.72 270,284 268,282" id="1"/>
<path d="M 168,272 C 169,274 161.95,266.577 153,261 C 134.199,250.639 131.718,253.128 108,245 C 93.629,241.801 93.7243,240.919 84,232 C 66.2787,219.951 65.6471,220.471 47,209 C 26.3822,196.137 8,180 9,179" id="2"/>
<path d="M 265,285 C 265,283 303.152,286.184 337,286 C 347.094,286.349 348.481,284.638 358,279 C 368.3,273.469 377,266 376,267" id="3"/>
<path d="M 9,179 C 11,177 17.6548,173.651 22,175 C 36.3021,172.738 50,174 48,175" id="4"/>
<path d="M 10,180 C 8,178 16.6213,172.539 27,173 C 39.8311,170.276 41.033,171.085 59,171 C 137.311,170.587 215,172 214,172" id="5"/>
<path d="M 204,173 C 202,171 231.584,168.272 261,174 C 296.673,179.579 331,191 329,190" id="6"/>
<path d="M 204,172 L 208,170" id="7"/>
<path d="M 216,170 C 217,170 215.004,159.819 216,152 C 217.556,140.071 221.981,139.352 228,123 C 228.677,114.438 225.848,112.531 230,102 C 231.117,95.0553 233.599,95.0024 235,92 C 238.912,84.1721 237.215,83.1396 237,77 C 241.13,66.4785 243.008,61.3867 243,60 C 241.228,58.6118 243.441,58.3938 247,60 C 254.516,60.5341 255.823,60.7998 261,67 C 264.861,71.9853 266.325,72.4873 272,77 C 276.513,84.2691 277.506,85.8788 281,97 C 284.721,122.22 284.119,123.509 289,146 C 292.091,161.769 292,180 291,182" id="8"/>
<path d="M 328,188 C 329,188 348.231,189.813 357,194 C 362.05,196.307 364.357,199.928 363,203 C 363.874,214.871 358.802,225.909 363,232 C 363.429,237.626 376.844,239.312 384,243 C 384.527,243.388 385.325,248.73 385,252 C 377.732,260.746 362,277 363,279" id="9"/>
<path d="M 15,180 C 15,179 13.1402,152.218 16,128 C 19.5317,103.675 26.7292,81.2483 26,83 C 24.0374,84.9657 32.5389,96.2587 40,106 C 43.2174,113.067 40.8063,114.745 46,126 C 58.0459,148.17 71,170 69,170" id="10"/>
<path d="M 15,186 S 11.2131,190.905 10,196 C 4.9966,222.214 0.56985,247.935 0,249 C 0.0070401,249.034 11.4221,248.289 20,244 C 40.9682,232.516 62,217 62,218" id="11"/>
<path d="M 114,205 C 114,207 114.027,209.993 114,208 C 113.874,210.031 110.316,208.527 110,206 C 108.828,206.713 109.719,204.056 111,203 C 112.547,204.69 118.969,205.312 120,204 C 121.356,206.237 121.402,210.655 120,209 C 119.262,211.632 113.572,212.163 113,210 C 110.927,209.979 110.932,207.017 113,207 C 111.7,208.825 119,210 121,208 C 123,208 118,208 116,208" id="12"/>
<path d="M 137,206 C 135,207 144.285,208.221 148,208 C 150.196,206.089 150.103,208.969 148,211 C 146.853,209.344 138.617,209.343 138,211 C 137.89,209.939 138.668,205.078 139,206 C 140.404,203.435 154,205 155,207 C 155,209 142,209 142,207 C 142,207 154.927,208.938 155,209 C 157.013,208.011 153.771,211.147 149,213 C 146.317,212.826 144.824,212.565 142,213 C 138.628,214.726 137.423,213.846 139,211 C 138.517,209.033 138.785,206.123 139,207 C 140.66,204.623 147,205 146,207" id="13"/>
<path d="M 183,213 C 184,211 192.001,212 191,214 C 191.998,216.001 178.214,218.058 177,216 C 178.974,216.993 180.945,212.325 180,211 C 183.252,208.307 190.923,209.907 190,212 C 191.007,210.008 188.199,214.084 185,217 C 181.827,217.905 177.66,217.377 178,217 C 175.785,215.877 175.814,212.083 178,213 C 178.939,211.583 187,212 187,213 C 185,211 179,211 181,213" id="14"/>
<path d="M 220,214 C 218,215 216.015,215.031 218,214 C 216.977,215.954 217.73,214.023 219,212 C 219.523,213.79 228,215 230,213 C 230,213 221.63,215.202 219,215 C 220.459,216.958 218.927,214.182 217,212 C 218.119,212.702 220.112,211.29 221,210 C 225.944,210.393 228.734,210.547 230,210 C 228.352,209.071 229.107,210.821 231,212 C 228.586,212.69 226.816,214.505 227,215 C 223.361,213.72 220.329,213.498 220,215 C 217.597,215.849 217,213 219,212 C 217.526,211.825 223.128,211.17 229,212 C 230.798,213.385 233.021,215.989 233,215 C 231.871,213.064 221.54,215.221 219,217 C 217.442,217.965 216,215 217,214" id="15"/>
<path d="M 262,213 C 261,212 273.7,211.918 275,213 C 276.027,214.007 274.782,216.804 273,216 C 269.156,216.711 266.134,216.973 263,216 C 260.717,217.227 257.328,214.394 256,212 C 256.989,210.987 258.173,209.138 258,210 C 259.544,209.409 265.474,209.825 268,210 C 270,211 269.442,213.853 267,213 C 262.498,215.834 254,216 256,214 C 257,215 266,216 265,215" id="16"/>
<path d="M 305,220 C 303,221 312.943,219.984 315,219 C 313.013,218.004 311.295,220.647 312,222 C 307.288,224.74 303.093,224.607 304,222 C 305.484,223.713 304.877,219.077 303,217 C 304.523,216.673 312.812,216.919 312,217 C 312.015,219.006 310.755,221.849 310,220 C 304.223,218.755 295.002,218.001 297,220 C 298.999,222 306,220 304,218" id="17"/>
<path d="M 341,212 C 342,214 333.788,209.012 332,206 C 333.913,204.887 335.228,202.178 334,203 C 335.156,203.272 338.949,202.721 345,203 C 347.644,206.151 351.135,209.415 353,209 C 354.326,210.598 352.818,214.659 351,214 C 346.997,212.835 342.571,213.36 341,214 C 335.983,214.089 329.997,208.003 330,206 C 328.015,204.985 345,207 347,208" id="18"/>
</g>
</g>
</svg>