<?xml version="1.0" ?>
<!DOCTYPE svg
  PUBLIC '-//W3C//DTD SVG 1.1//EN'
  'http://www.w3.org/Graphics/SVG/1.1/DTD/svg11.dtd'>
<svg preserveAspectRatio="xMinYMin meet" version="1.1" viewBox="0 0 800 800" xmlns="http://www.w3.org/2000/svg">
<g fill="none" stroke="black" stroke-linecap="round" stroke-linejoin="round" stroke-width="1.8481">
<g transform="rotate(0.0,200,200) translate(87.52,135.4065) scale(1.6233) translate(0.0,-60.0) skewX(0.0) skewY(0.0)">
<path d="M 167,268 C 164,273 166.367,268.481 172,262 C 170.99,256.756 172.639,256.236 183,259 C 207.451,262.789 213.727,261.008 240,259 C 240.78,254.743 242.603,257.819 253,268 C 257.584,275.321 263,284 265,283" id="0"/>
<path d="M 171,264 C 169,260 154.016,295.142 149,333 C 145.974,356.428 147.294,360.917 148,375 C 146.471,381.991 149.647,387.26 154,386 C 164.215,384.268 175.603,386.128 183,386 C 200.826,373.922 205.971,369.266 222,359 C 240.729,345.925 240.843,342.929 246,326 C 254.871,319.214 252.756,317.488 255,304 C 260.64,288.72 268,278 268,282" id="1"/>
<path d="M 168,272 C 164,270 156.95,262.577 153,261 C 136.199,253.639 133.718,256.128 108,245 C 98.629,243.801 98.7243,242.919 84,232 C 65.2787,224.951 64.6471,225.471 47,209 C 31.3822,197.137 13,181 9,179" id="2"/>
<path d="M 265,285 C 269,285 307.152,288.184 337,286 C 351.094,288.349 352.481,286.638 358,279 C 366.3,277.469 375,270 376,267" id="3"/>
<path d="M 9,179 C 7,174 13.6548,170.651 22,175 C 29.3021,175.738 43,177 48,175" id="4"/>
<path d="M 10,180 C 6,180 14.6213,174.539 27,173 C 40.8311,165.276 42.033,166.085 59,171 C 133.311,174.587 211,176 214,172" id="5"/>
<path d="M 204,173 C 204,176 233.584,173.272 261,174 C 289.673,179.579 324,191 329,190" id="6"/>
<path d="M 204,172 L 208,170" id="7"/>
<path d="M 216,170 C 221,173 219.004,162.819 216,152 C 219.556,139.071 223.981,138.352 228,123 C 231.677,111.438 228.848,109.531 230,102 C 233.117,98.0553 235.599,98.0024 235,92 C 232.912,86.1721 231.215,85.1396 237,77 C 243.13,69.4785 245.008,64.3867 243,60 C 248.228,59.6118 250.441,59.3938 247,60 C 252.516,57.5341 253.823,57.7998 261,67 C 265.861,66.9853 267.325,67.4873 272,77 C 273.513,89.2691 274.506,90.8788 281,97 C 291.721,117.22 291.119,118.509 289,146 C 293.091,158.769 293,177 291,182" id="8"/>
<path d="M 328,188 C 327,193 346.231,194.813 357,194 C 355.05,194.307 357.357,197.928 363,203 C 365.874,209.871 360.802,220.909 363,232 C 363.429,241.626 376.844,243.312 384,243 C 387.527,246.388 388.325,251.73 385,252 C 380.732,263.746 365,280 363,279" id="9"/>
<path d="M 15,180 C 11,176 9.1402,149.218 16,128 C 15.5317,102.675 22.7292,80.2483 26,83 C 23.0374,86.9657 31.5389,98.2587 40,106 C 39.2174,116.067 36.8063,117.745 46,126 C 55.0459,148.17 68,170 69,170" id="10"/>
<path d="M 15,186 C 13,186 9.2131,190.905 10,196 C 4.9966,217.214 0.56985,242.935 0,249 C -2.99296,254.034 8.4221,253.289 20,244 C 39.9682,228.516 61,213 62,218" id="11"/>
<path d="M 114,205 C 114,206 114.027,208.993 114,208 C 108.874,208.031 105.316,206.527 110,206 C 114.828,205.713 115.719,203.056 111,203 C 109.547,197.69 115.969,198.312 120,204 C 115.356,208.237 115.402,212.655 120,209 C 115.262,207.632 109.572,208.163 113,210 C 107.927,208.979 107.932,206.017 113,207 C 115.7,210.825 123,212 121,208 C 118,210 113,210 116,208" id="12"/>
<path d="M 137,206 C 139,201 148.285,202.221 148,208 C 146.196,209.089 146.103,211.969 148,211 C 146.853,211.344 138.617,211.343 138,211 C 135.89,211.939 136.668,207.078 139,206 C 144.404,205.435 158,207 155,207 C 159,208 146,208 142,207 C 141,210 153.927,211.938 155,209 C 156.013,213.011 152.771,216.147 149,213 C 147.317,213.826 145.824,213.565 142,213 C 145.628,212.726 144.423,211.846 139,211 C 134.517,214.033 134.785,211.123 139,207 C 135.66,203.623 142,204 146,207" id="13"/>
<path d="M 183,213 C 181,217 189.001,218 191,214 C 193.998,212.001 180.214,214.058 177,216 C 173.974,219.993 175.945,215.325 180,211 C 185.252,213.307 192.923,214.907 190,212 C 187.007,216.008 184.199,220.084 185,217 C 186.827,222.905 182.66,222.377 178,217 C 173.785,217.877 173.814,214.083 178,213 C 174.939,214.583 183,215 187,213 C 183,215 177,215 181,213" id="14"/>
<path d="M 220,214 C 225,219 223.015,219.031 218,214 C 216.977,212.954 217.73,211.023 219,212 C 218.523,211.79 227,213 230,213 C 234,216 225.63,218.202 219,215 C 222.459,214.958 220.927,212.182 217,212 C 215.119,209.702 217.112,208.29 221,210 C 226.944,208.393 229.734,208.547 230,210 C 226.352,211.071 227.107,212.821 231,212 C 228.586,209.69 226.816,211.505 227,215 C 221.361,213.72 218.329,213.498 220,215 C 224.597,214.849 224,212 219,212 C 219.526,212.825 225.128,212.17 229,212 C 233.798,210.385 236.021,212.989 233,215 C 237.871,217.064 227.54,219.221 219,217 C 213.442,212.965 212,210 217,214" id="15"/>
<path d="M 262,213 C 264,212 276.7,211.918 275,213 C 277.027,216.007 275.782,218.804 273,216 C 275.156,212.711 272.134,212.973 263,216 C 257.717,210.227 254.328,207.394 256,212 C 250.989,206.987 252.173,205.138 258,210 C 258.544,204.409 264.474,204.825 268,210 C 271,214 270.442,216.853 267,213 C 265.498,215.834 257,216 256,214 C 261,217 270,218 265,215" id="16"/>
<path d="M 305,220 C 302,217 311.943,215.984 315,219 C 315.013,222.004 313.295,224.647 312,222 C 310.288,225.74 306.093,225.607 304,222 C 299.484,220.713 298.877,216.077 303,217 C 302.523,217.673 310.812,217.919 312,217 C 312.015,217.006 310.755,219.849 310,220 C 307.223,219.755 298.002,219.001 297,220 C 291.999,224 299,222 304,218" id="17"/>
<path d="M 341,212 C 346,207 337.788,202.012 332,206 C 329.913,201.887 331.228,199.178 334,203 C 340.156,203.272 343.949,202.721 345,203 C 343.644,202.151 347.135,205.415 353,209 C 356.326,206.598 354.818,210.659 351,214 C 348.997,210.835 344.571,211.36 341,214 C 340.983,217.089 334.997,211.003 330,206 C 333.015,210.985 350,213 347,208" id="18"/>
</g>
</g>
</svg>