<?xml version="1.0" ?>
<!DOCTYPE svg
  PUBLIC '-//W3C//DTD SVG 1.1//EN'
  'http://www.w3.org/Graphics/SVG/1.1/DTD/svg11.dtd'>
<svg preserveAspectRatio="xMinYMin meet" version="1.1" viewBox="0 0 800 800" xmlns="http://www.w3.org/2000/svg">
<g fill="none" stroke="black" stroke-linecap="round" stroke-linejoin="round" stroke-width="1.8481">
<g transform="rotate(0.0,200,200) translate(87.52,135.4065) scale(1.6233) translate(0.0,-60.0) skewX(0.0) skewY(0.0)">
<path d="M 167,268 C 171,258 173.367,253.481 176,252 C 179.99,249.756 181.639,249.236 187,249 C 214.451,247.789 220.727,246.008 244,249 C 249.78,249.743 251.603,252.819 257,258 C 263.584,264.321 269,273 269,273" id="0"/>
<path d="M 168,265 S 153.016,300.142 146,334 C 141.974,353.428 143.294,357.917 145,376 C 145.471,380.991 148.647,386.26 151,387 C 158.215,389.268 169.603,391.128 180,387 C 197.826,379.922 202.971,375.266 219,360 C 232.729,346.925 232.843,343.929 243,327 C 248.871,317.214 246.756,315.488 252,305 C 257.64,293.72 265,283 265,283" id="1"/>
<path d="M 167,266 S 159.95,258.577 152,255 C 131.199,245.639 128.718,248.128 107,239 C 94.629,233.801 94.7243,232.919 83,226 C 64.2787,214.951 63.6471,215.471 46,203 C 26.3822,189.137 8,173 8,173" id="2"/>
<path d="M 256,278 S 294.152,281.184 328,279 C 338.094,278.349 339.481,276.638 349,272 C 358.3,267.469 367,260 367,260" id="3"/>
<path d="M 16,188 S 22.6548,184.651 29,184 C 41.3021,182.738 55,184 55,184" id="4"/>
<path d="M 6,172 S 14.6213,166.539 23,165 C 37.8311,162.276 39.033,163.085 55,163 C 132.311,162.587 210,164 210,164" id="5"/>
<path d="M 214,176 S 243.584,173.272 271,177 C 304.673,181.579 339,193 339,193" id="6"/>
<path d="M 206,182 L 210,180" id="7"/>
<path d="M 207,162 S 205.004,151.819 207,144 C 210.556,130.071 214.981,129.352 219,115 C 221.677,105.438 218.848,103.531 221,94 C 222.117,89.0553 224.599,89.0024 226,84 C 227.912,77.1721 226.215,76.1396 228,69 C 230.13,60.4785 232.008,55.3867 234,52 C 234.228,51.6118 236.441,51.3938 238,52 C 244.516,54.5341 245.823,54.7998 252,59 C 257.861,62.9853 259.325,63.4873 263,69 C 268.513,77.2691 269.506,78.8788 272,89 C 277.721,112.22 277.119,113.509 280,138 C 282.091,155.769 282,174 282,174" id="8"/>
<path d="M 321,195 S 340.231,196.813 350,201 C 353.05,202.307 355.357,205.928 356,210 C 357.874,221.871 352.802,232.909 356,239 C 358.429,243.626 371.844,245.312 377,250 C 378.527,251.388 379.325,256.73 378,259 C 371.732,269.746 356,286 356,286" id="9"/>
<path d="M 11,178 S 9.1402,151.218 12,126 C 14.5317,103.675 21.7292,81.2483 22,81 C 22.0374,80.9657 30.5389,92.2587 36,104 C 40.2174,113.067 37.8063,114.745 42,124 C 52.0459,146.17 65,168 65,168" id="10"/>
<path d="M 16,180 S 12.2131,184.905 11,190 C 4.9966,215.214 0.56985,240.935 1,243 C 1.00704,243.034 12.4221,242.289 21,238 C 41.9682,227.516 63,212 63,212" id="11"/>
<path d="M 119,213 S 119.027,215.993 119,216 C 118.874,216.031 115.316,214.527 115,214 C 114.828,213.713 115.719,211.056 116,211 C 117.547,210.69 123.969,211.312 125,212 C 125.356,212.237 125.402,216.655 125,217 C 124.262,217.632 118.572,218.163 118,218 C 117.927,217.979 117.932,215.017 118,215 C 118.7,214.825 126,216 126,216 C 126,216 121,216 121,216" id="12"/>
<path d="M 130,213 S 139.285,214.221 141,215 C 141.196,215.089 141.103,217.969 141,218 C 139.853,218.344 131.617,218.343 131,218 C 130.89,217.939 131.668,213.078 132,213 C 134.404,212.435 148,214 148,214 S 135,214 135,214 S 147.927,215.938 148,216 C 148.013,216.011 144.771,219.147 142,220 C 139.317,220.826 137.824,220.565 135,220 C 133.628,219.726 132.423,218.846 132,218 C 131.517,217.033 131.785,214.123 132,214 C 132.66,213.623 139,214 139,214" id="13"/>
<path d="M 192,220 S 200.001,221 200,221 C 199.998,221.001 186.214,223.058 186,223 C 185.974,222.993 187.945,218.325 189,218 C 191.252,217.307 198.923,218.907 199,219 C 199.007,219.008 196.199,223.084 194,224 C 191.827,224.905 187.66,224.377 187,224 C 186.785,223.877 186.814,220.083 187,220 C 187.939,219.583 196,220 196,220 S 190,220 190,220" id="14"/>
<path d="M 226,216 S 224.015,216.031 224,216 C 223.977,215.954 224.73,214.023 225,214 C 227.523,213.79 236,215 236,215 C 236,215 227.63,217.202 225,217 C 224.459,216.958 222.927,214.182 223,214 C 223.119,213.702 225.112,212.29 227,212 C 230.944,211.393 233.734,211.547 236,212 C 236.352,212.071 237.107,213.821 237,214 C 236.586,214.69 234.816,216.505 233,217 C 230.361,217.72 227.329,217.498 226,217 C 225.597,216.849 225,214 225,214 C 225.526,213.825 231.128,213.17 235,214 C 236.798,214.385 239.021,216.989 239,217 C 238.871,217.064 228.54,219.221 225,219 C 224.442,218.965 223,216 223,216" id="15"/>
<path d="M 266,214 S 278.7,213.918 279,214 C 279.027,214.007 277.782,216.804 277,217 C 274.156,217.711 271.134,217.973 267,217 C 263.717,216.227 260.328,213.394 260,213 C 259.989,212.987 261.173,211.138 262,211 C 265.544,210.409 271.474,210.825 272,211 C 272,211 271.442,213.853 271,214 C 268.498,214.834 260,215 260,215 C 260,215 269,216 269,216" id="16"/>
<path d="M 308,221 S 317.943,219.984 318,220 C 318.013,220.004 316.295,222.647 315,223 C 312.288,223.74 308.093,223.607 307,223 C 306.484,222.713 305.877,218.077 306,218 C 306.523,217.673 314.812,217.919 315,218 C 315.015,218.006 313.755,220.849 313,221 C 309.223,221.755 300.002,221.001 300,221 C 299.999,221 307,219 307,219" id="17"/>
<path d="M 331,217 S 322.788,212.012 322,211 C 321.913,210.887 323.228,208.178 324,208 C 327.156,207.272 330.949,206.721 335,208 C 338.644,209.151 342.135,212.415 343,214 C 343.326,214.598 341.818,218.659 341,219 C 338.997,219.835 334.571,220.36 331,219 C 325.983,217.089 319.997,211.003 320,211 C 320.015,210.985 337,213 347,208" id="18"/>
</g>
</g>
</svg>