<?xml version="1.0" ?>
<!DOCTYPE svg
  PUBLIC '-//W3C//DTD SVG 1.1//EN'
  'http://www.w3.org/Graphics/SVG/1.1/DTD/svg11.dtd'>
<svg preserveAspectRatio="xMinYMin meet" version="1.1" viewBox="0 0 800 800" xmlns="http://www.w3.org/2000/svg">
<g fill="none" stroke="black" stroke-linecap="round" stroke-linejoin="round" stroke-width="1.8481">
<g transform="rotate(0.0,200,200) translate(87.52,135.4065) scale(1.6233) translate(0.0,-60.0) skewX(0.0) skewY(0.0)">
<path d="M 167,268 C 163,271 165.367,266.481 168,265 C 171.99,262.756 173.639,262.236 179,262 C 206.451,260.789 212.727,259.008 236,262 C 241.78,262.743 243.603,265.819 249,271 C 255.584,277.321 261,286 261,286" id="0"/>
<path d="M 171,268 S 156.016,303.142 149,337 C 144.974,356.428 146.294,360.917 148,379 C 148.471,383.991 151.647,389.26 154,390 C 161.215,392.268 172.603,394.128 183,390 C 200.826,382.922 205.971,378.266 222,363 C 235.729,349.925 235.843,346.929 246,330 C 251.871,320.214 249.756,318.488 255,308 C 260.64,296.72 268,286 268,286" id="1"/>
<path d="M 166,268 S 158.95,260.577 151,257 C 130.199,247.639 127.718,250.128 106,241 C 93.629,235.801 93.7243,234.919 82,228 C 63.2787,216.951 62.6471,217.471 45,205 C 25.3822,191.137 7,175 7,175" id="2"/>
<path d="M 269,285 S 307.152,288.184 341,286 C 351.094,285.349 352.481,283.638 362,279 C 371.3,274.469 380,267 380,267" id="3"/>
<path d="M 8,181 S 14.6548,177.651 21,177 C 33.3021,175.738 47,177 47,177" id="4"/>
<path d="M 9,185 S 17.6213,179.539 26,178 C 40.8311,175.276 42.033,176.085 58,176 C 135.311,175.587 213,177 213,177" id="5"/>
<path d="M 199,169 S 228.584,166.272 256,170 C 289.673,174.579 324,186 324,186" id="6"/>
<path d="M 207,171 L 211,169" id="7"/>
<path d="M 217,170 S 215.004,159.819 217,152 C 220.556,138.071 224.981,137.352 229,123 C 231.677,113.438 228.848,111.531 231,102 C 232.117,97.0553 234.599,97.0024 236,92 C 237.912,85.1721 236.215,84.1396 238,77 C 240.13,68.4785 242.008,63.3867 244,60 C 244.228,59.6118 246.441,59.3938 248,60 C 254.516,62.5341 255.823,62.7998 262,67 C 267.861,70.9853 269.325,71.4873 273,77 C 278.513,85.2691 279.506,86.8788 282,97 C 287.721,120.22 287.119,121.509 290,146 C 292.091,163.769 292,182 292,182" id="8"/>
<path d="M 328,184 S 347.231,185.813 357,190 C 360.05,191.307 362.357,194.928 363,199 C 364.874,210.871 359.802,221.909 363,228 C 365.429,232.626 378.844,234.312 384,239 C 385.527,240.388 386.325,245.73 385,248 C 378.732,258.746 363,275 363,275" id="9"/>
<path d="M 15,176 S 13.1402,149.218 16,124 C 18.5317,101.675 25.7292,79.2483 26,79 C 26.0374,78.9657 34.5389,90.2587 40,102 C 44.2174,111.067 41.8063,112.745 46,122 C 56.0459,144.17 69,166 69,166" id="10"/>
<path d="M 18,182 S 14.2131,186.905 13,192 C 6.9966,217.214 2.56985,242.935 3,245 C 3.00704,245.034 14.4221,244.289 23,240 C 43.9682,229.516 65,214 65,214" id="11"/>
<path d="M 118,204 S 118.027,206.993 118,207 C 117.874,207.031 114.316,205.527 114,205 C 113.828,204.713 114.719,202.056 115,202 C 116.547,201.69 122.969,202.312 124,203 C 124.356,203.237 124.402,207.655 124,208 C 123.262,208.632 117.572,209.163 117,209 C 116.927,208.979 116.932,206.017 117,206 C 117.7,205.825 125,207 125,207 C 125,207 120,207 120,207" id="12"/>
<path d="M 136,208 S 145.285,209.221 147,210 C 147.196,210.089 147.103,212.969 147,213 C 145.853,213.344 137.617,213.343 137,213 C 136.89,212.939 137.668,208.078 138,208 C 140.404,207.435 154,209 154,209 S 141,209 141,209 S 153.927,210.938 154,211 C 154.013,211.011 150.771,214.147 148,215 C 145.317,215.826 143.824,215.565 141,215 C 139.628,214.726 138.423,213.846 138,213 C 137.517,212.033 137.785,209.123 138,209 C 138.66,208.623 145,209 145,209" id="13"/>
<path d="M 188,214 S 196.001,215 196,215 C 195.998,215.001 182.214,217.058 182,217 C 181.974,216.993 183.945,212.325 185,212 C 187.252,211.307 194.923,212.907 195,213 C 195.007,213.008 192.199,217.084 190,218 C 187.827,218.905 183.66,218.377 183,218 C 182.785,217.877 182.814,214.083 183,214 C 183.939,213.583 192,214 192,214 S 186,214 186,214" id="14"/>
<path d="M 215,211 S 213.015,211.031 213,211 C 212.977,210.954 213.73,209.023 214,209 C 216.523,208.79 225,210 225,210 C 225,210 216.63,212.202 214,212 C 213.459,211.958 211.927,209.182 212,209 C 212.119,208.702 214.112,207.29 216,207 C 219.944,206.393 222.734,206.547 225,207 C 225.352,207.071 226.107,208.821 226,209 C 225.586,209.69 223.816,211.505 222,212 C 219.361,212.72 216.329,212.498 215,212 C 214.597,211.849 214,209 214,209 C 214.526,208.825 220.128,208.17 224,209 C 225.798,209.385 228.021,211.989 228,212 C 227.871,212.064 217.54,214.221 214,214 C 213.442,213.965 212,211 212,211" id="15"/>
<path d="M 261,217 S 273.7,216.918 274,217 C 274.027,217.007 272.782,219.804 272,220 C 269.156,220.711 266.134,220.973 262,220 C 258.717,219.227 255.328,216.394 255,216 C 254.989,215.987 256.173,214.138 257,214 C 260.544,213.409 266.474,213.825 267,214 C 267,214 266.442,216.853 266,217 C 263.498,217.834 255,218 255,218 C 255,218 264,219 264,219" id="16"/>
<path d="M 305,218 S 314.943,216.984 315,217 C 315.013,217.004 313.295,219.647 312,220 C 309.288,220.74 305.093,220.607 304,220 C 303.484,219.713 302.877,215.077 303,215 C 303.523,214.673 311.812,214.919 312,215 C 312.015,215.006 310.755,217.849 310,218 C 306.223,218.755 297.002,218.001 297,218 C 296.999,218 304,216 304,216" id="17"/>
<path d="M 337,210 S 328.788,205.012 328,204 C 327.913,203.887 329.228,201.178 330,201 C 333.156,200.272 336.949,199.721 341,201 C 344.644,202.151 348.135,205.415 349,207 C 349.326,207.598 347.818,211.659 347,212 C 344.997,212.835 340.571,213.36 337,212 C 331.983,210.089 325.997,204.003 326,204 C 326.015,203.985 343,206 347,208" id="18"/>
</g>
</g>
</svg>