<?xml version="1.0" ?>
<!DOCTYPE svg
  PUBLIC '-//W3C//DTD SVG 1.1//EN'
  'http://www.w3.org/Graphics/SVG/1.1/DTD/svg11.dtd'>
<svg preserveAspectRatio="xMinYMin meet" version="1.1" viewBox="0 0 800 800" xmlns="http://www.w3.org/2000/svg">
<g fill="none" stroke="black" stroke-linecap="round" stroke-linejoin="round" stroke-width="1.8481">
<g transform="rotate(0.0,200,200) translate(87.52,135.4065) scale(1.6233) translate(0.0,-60.0) skewX(7.0) skewY(0.0)">
<path d="M 167,268 S 169.367,263.481 172,262 C 175.99,259.756 177.639,259.236 183,259 C 210.451,257.789 216.727,256.008 240,259 C 245.78,259.743 247.603,262.819 253,268 C 259.584,274.321 265,283 265,283" id="0"/>
<path d="M 171,264 S 156.016,299.142 149,333 C 144.974,352.428 146.294,356.917 148,375 C 148.471,379.991 151.647,385.26 154,386 C 161.215,388.268 172.603,390.128 183,386 C 200.826,378.922 205.971,374.266 222,359 C 235.729,345.925 235.843,342.929 246,326 C 251.871,316.214 249.756,314.488 255,304 C 260.64,292.72 268,282 268,282" id="1"/>
<path d="M 168,272 S 160.95,264.577 153,261 C 132.199,251.639 129.718,254.128 108,245 C 95.629,239.801 95.7243,238.919 84,232 C 65.2787,220.951 64.6471,221.471 47,209 C 27.3822,195.137 9,179 9,179" id="2"/>
<path d="M 265,285 S 303.152,288.184 337,286 C 347.094,285.349 348.481,283.638 358,279 C 367.3,274.469 376,267 376,267" id="3"/>
<path d="M 9,179 S 15.6548,175.651 22,175 C 34.3021,173.738 48,175 48,175" id="4"/>
<path d="M 10,180 S 18.6213,174.539 27,173 C 41.8311,170.276 43.033,171.085 59,171 C 136.311,170.587 214,172 214,172" id="5"/>
<path d="M 204,173 S 233.584,170.272 261,174 C 294.673,178.579 329,190 329,190" id="6"/>
<path d="M 204,172 L 208,170" id="7"/>
<path d="M 216,170 S 214.004,159.819 216,152 C 219.556,138.071 223.981,137.352 228,123 C 230.677,113.438 227.848,111.531 230,102 C 231.117,97.0553 233.599,97.0024 235,92 C 236.912,85.1721 235.215,84.1396 237,77 C 239.13,68.4785 241.008,63.3867 243,60 C 243.228,59.6118 245.441,59.3938 247,60 C 253.516,62.5341 254.823,62.7998 261,67 C 266.861,70.9853 268.325,71.4873 272,77 C 277.513,85.2691 278.506,86.8788 281,97 C 286.721,120.22 286.119,121.509 289,146 C 291.091,163.769 291,182 291,182" id="8"/>
<path d="M 328,188 S 347.231,189.813 357,194 C 360.05,195.307 362.357,198.928 363,203 C 364.874,214.871 359.802,225.909 363,232 C 365.429,236.626 378.844,238.312 384,243 C 385.527,244.388 386.325,249.73 385,252 C 378.732,262.746 363,279 363,279" id="9"/>
<path d="M 15,180 S 13.1402,153.218 16,128 C 18.5317,105.675 25.7292,83.2483 26,83 C 26.0374,82.9657 34.5389,94.2587 40,106 C 44.2174,115.067 41.8063,116.745 46,126 C 56.0459,148.17 69,170 69,170" id="10"/>
<path d="M 15,186 S 11.2131,190.905 10,196 C 3.9966,221.214 -0.43015,246.935 0,249 C 0.0070401,249.034 11.4221,248.289 20,244 C 40.9682,233.516 62,218 62,218" id="11"/>
<path d="M 114,205 S 114.027,207.993 114,208 C 113.874,208.031 110.316,206.527 110,206 C 109.828,205.713 110.719,203.056 111,203 C 112.547,202.69 118.969,203.312 120,204 C 120.356,204.237 120.402,208.655 120,209 C 119.262,209.632 113.572,210.163 113,210 C 112.927,209.979 112.932,207.017 113,207 C 113.7,206.825 121,208 121,208 C 121,208 116,208 116,208" id="12"/>
<path d="M 137,206 S 146.285,207.221 148,208 C 148.196,208.089 148.103,210.969 148,211 C 146.853,211.344 138.617,211.343 138,211 C 137.89,210.939 138.668,206.078 139,206 C 141.404,205.435 155,207 155,207 S 142,207 142,207 S 154.927,208.938 155,209 C 155.013,209.011 151.771,212.147 149,213 C 146.317,213.826 144.824,213.565 142,213 C 140.628,212.726 139.423,211.846 139,211 C 138.517,210.033 138.785,207.123 139,207 C 139.66,206.623 146,207 146,207" id="13"/>
<path d="M 183,213 S 191.001,214 191,214 C 190.998,214.001 177.214,216.058 177,216 C 176.974,215.993 178.945,211.325 180,211 C 182.252,210.307 189.923,211.907 190,212 C 190.007,212.008 187.199,216.084 185,217 C 182.827,217.905 178.66,217.377 178,217 C 177.785,216.877 177.814,213.083 178,213 C 178.939,212.583 187,213 187,213 S 181,213 181,213" id="14"/>
<path d="M 220,214 S 218.015,214.031 218,214 C 217.977,213.954 218.73,212.023 219,212 C 221.523,211.79 230,213 230,213 C 230,213 221.63,215.202 219,215 C 218.459,214.958 216.927,212.182 217,212 C 217.119,211.702 219.112,210.29 221,210 C 224.944,209.393 227.734,209.547 230,210 C 230.352,210.071 231.107,211.821 231,212 C 230.586,212.69 228.816,214.505 227,215 C 224.361,215.72 221.329,215.498 220,215 C 219.597,214.849 219,212 219,212 C 219.526,211.825 225.128,211.17 229,212 C 230.798,212.385 233.021,214.989 233,215 C 232.871,215.064 222.54,217.221 219,217 C 218.442,216.965 217,214 217,214" id="15"/>
<path d="M 262,213 S 274.7,212.918 275,213 C 275.027,213.007 273.782,215.804 273,216 C 270.156,216.711 267.134,216.973 263,216 C 259.717,215.227 256.328,212.394 256,212 C 255.989,211.987 257.173,210.138 258,210 C 261.544,209.409 267.474,209.825 268,210 C 268,210 267.442,212.853 267,213 C 264.498,213.834 256,214 256,214 C 256,214 265,215 265,215" id="16"/>
<path d="M 305,220 S 314.943,218.984 315,219 C 315.013,219.004 313.295,221.647 312,222 C 309.288,222.74 305.093,222.607 304,222 C 303.484,221.713 302.877,217.077 303,217 C 303.523,216.673 311.812,216.919 312,217 C 312.015,217.006 310.755,219.849 310,220 C 306.223,220.755 297.002,220.001 297,220 C 296.999,220 304,218 304,218" id="17"/>
<path d="M 341,212 S 332.788,207.012 332,206 C 331.913,205.887 333.228,203.178 334,203 C 337.156,202.272 340.949,201.721 345,203 C 348.644,204.151 352.135,207.415 353,209 C 353.326,209.598 351.818,213.659 351,214 C 348.997,214.835 344.571,215.36 341,214 C 335.983,212.089 329.997,206.003 330,206 C 330.015,205.985 347,208 347,208" id="18"/>
</g>
</g>
</svg>